<svg width="103" height="104" viewBox="0 0 103 104" fill="none" xmlns="http://www.w3.org/2000/svg">
<g clip-path="url(#clip0_23:56)">
<g filter="url(#filter0_d_23:56)">
<path d="M51.5 2.08008C24.1947 2.08008 2.06 24.4297 2.06 52.0001C2.06034 58.5557 3.33947 65.047 5.82438 71.1034C8.30928 77.1599 11.9513 82.6628 16.5425 87.2981C21.1336 91.9333 26.584 95.6101 32.5825 98.1185C38.581 100.627 45.01 101.918 51.5026 101.917C57.9951 101.917 64.424 100.626 70.4222 98.1166C76.4204 95.6075 81.8705 91.9302 86.4612 87.2944C91.0519 82.6587 94.6933 77.1553 97.1776 71.0986C99.6619 65.0419 100.94 58.5505 100.94 51.9949C100.94 24.4297 78.8001 2.08008 51.5 2.08008ZM50.7223 81.1149H50.4597C46.4324 80.9953 43.5896 77.9949 43.708 73.9857C43.8214 70.0441 46.7311 67.1789 50.6245 67.1789L50.8614 67.1893C55.002 67.3089 57.8139 70.2781 57.6954 74.4017C57.577 78.3537 54.7187 81.1149 50.7223 81.1149ZM67.671 47.1537C66.7234 48.5057 64.6428 50.2009 62.0163 52.2653L59.122 54.2777C57.5358 55.5257 56.5779 56.7061 56.2225 57.8553C55.9341 58.7601 55.8002 59.0045 55.7745 60.8505V61.3185H44.7277L44.7586 60.3721C44.8977 56.5033 44.9904 54.2153 46.5817 52.3277C49.0795 49.3741 54.59 45.7861 54.8217 45.6353C55.5777 45.0776 56.2372 44.3977 56.7736 43.6229C57.9323 42.0057 58.4422 40.7369 58.4422 39.4993C58.4422 37.7625 57.9375 36.1557 56.9332 34.7361C55.965 33.3529 54.1265 32.6665 51.4691 32.6665C48.8323 32.6665 47.0246 33.5089 45.9483 35.2457C44.8359 37.0189 44.2745 38.8857 44.2745 40.7941V41.2725H32.8879L32.9085 40.7733C33.202 33.7377 35.6946 28.6677 40.2987 25.7089C43.1982 23.8317 46.8083 22.8801 51.0159 22.8801C56.5161 22.8801 61.1717 24.2321 64.8282 26.8945C68.5413 29.5933 70.4211 33.6389 70.4211 38.9117C70.4159 41.8601 69.4941 44.6317 67.671 47.1537Z" fill="white"/>
</g>
</g>
<defs>
<filter id="filter0_d_23:56" x="-1.94" y="2.08008" width="106.88" height="107.837" filterUnits="userSpaceOnUse" color-interpolation-filters="sRGB">
<feFlood flood-opacity="0" result="BackgroundImageFix"/>
<feColorMatrix in="SourceAlpha" type="matrix" values="0 0 0 0 0 0 0 0 0 0 0 0 0 0 0 0 0 0 127 0" result="hardAlpha"/>
<feOffset dy="4"/>
<feGaussianBlur stdDeviation="2"/>
<feComposite in2="hardAlpha" operator="out"/>
<feColorMatrix type="matrix" values="0 0 0 0 0 0 0 0 0 0 0 0 0 0 0 0 0 0 0.25 0"/>
<feBlend mode="normal" in2="BackgroundImageFix" result="effect1_dropShadow_23:56"/>
<feBlend mode="normal" in="SourceGraphic" in2="effect1_dropShadow_23:56" result="shape"/>
</filter>
<clipPath id="clip0_23:56">
<rect width="103" height="104" fill="white"/>
</clipPath>
</defs>
</svg>
